<?xml version="1.0" encoding="utf-8"?>
<!-- Generator: Adobe Illustrator 19.0.0, SVG Export Plug-In . SVG Version: 6.00 Build 0)  -->
<svg version="1.1" id="Layer_1" xmlns="http://www.w3.org/2000/svg" xmlns:xlink="http://www.w3.org/1999/xlink" x="0px" y="0px"
	 viewBox="0 0 500 500" style="enable-background:new 0 0 500 500;" xml:space="preserve">
<style type="text/css">
	.st0{fill:#666666;}
	.st1{fill:#231F20;}
	.st2{fill:#0000FE;}
	.st3{fill:#007F00;}
	.st4{fill:#FE0000;}
	.st5{fill:#FEFE00;}
</style>
<g id="XMLID_1_">
	<path id="XMLID_3_" class="st0" d="M257.3,120.1v255.3c54.6-31.7,112.6-28.6,173.2,0.8V122.9C370.4,94.3,313,95.9,257.3,120.1"/>
	<polyline id="XMLID_4_" class="st0" points="219.9,138 219.9,170.3 252.1,153.4 252.1,122.4 219.9,138 	"/>
	<polyline id="XMLID_5_" class="st0" points="219.9,174.9 219.9,207.2 252.1,190.3 252.1,159.1 219.9,174.9 	"/>
	<polyline id="XMLID_6_" class="st0" points="219.9,211.4 219.9,243.6 252.1,227 252.1,195.8 219.9,211.4 	"/>
	<polyline id="XMLID_7_" class="st0" points="219.9,248.3 219.9,280.5 252.1,263.6 252.1,232.7 219.9,248.3 	"/>
	<polyline id="XMLID_8_" class="st0" points="219.9,284.7 219.9,316.7 252.1,300 252.1,268.8 219.9,284.7 	"/>
	<polyline id="XMLID_9_" class="st0" points="219.9,322.1 219.9,354.4 252.1,337.7 252.1,306.5 219.9,322.1 	"/>
	<polyline id="XMLID_10_" class="st0" points="219.9,359.1 219.9,391.3 252.1,374.4 252.1,343.4 219.9,359.1 	"/>
	<polyline id="XMLID_11_" class="st0" points="183.5,149.2 213.4,134.1 213.4,163.2 183.5,178.3 183.5,149.2 	"/>
	<polyline id="XMLID_12_" class="st0" points="183.5,186.4 213.4,171.3 213.4,200.4 183.5,215.5 183.5,186.4 	"/>
	<polyline id="XMLID_13_" class="st0" points="183.5,221.8 213.4,206.7 213.4,235.8 183.5,250.9 183.5,221.8 	"/>
	<polyline id="XMLID_14_" class="st0" points="183.5,258.7 213.4,243.6 213.4,272.7 183.5,288.1 183.5,258.7 	"/>
	<polyline id="XMLID_15_" class="st0" points="183.5,295.9 213.4,280.8 213.4,309.9 183.5,325.2 183.5,295.9 	"/>
	<polyline id="XMLID_16_" class="st0" points="183.5,331.5 213.4,316.4 213.4,345.5 183.5,360.9 183.5,331.5 	"/>
	<polyline id="XMLID_17_" class="st0" points="183.5,368.4 213.4,353.3 213.4,382.5 183.5,397.5 183.5,368.4 	"/>
	<polyline id="XMLID_18_" class="st0" points="151.2,147.9 176.7,135.9 176.7,161.4 151.2,173.7 151.2,147.9 	"/>
	<polyline id="XMLID_19_" class="st0" points="151.2,185.3 176.7,173.1 176.7,198.9 151.2,211.1 151.2,185.3 	"/>
	<polyline id="XMLID_20_" class="st0" points="151.2,220.7 176.7,208.8 176.7,234.2 151.2,246.5 151.2,220.7 	"/>
	<polyline id="XMLID_21_" class="st0" points="151.2,257.6 176.7,245.7 176.7,271.2 151.2,283.4 151.2,257.6 	"/>
	<polyline id="XMLID_22_" class="st0" points="151.2,295.1 176.7,282.9 176.7,308.6 151.2,320.8 151.2,295.1 	"/>
	<polyline id="XMLID_23_" class="st0" points="151.2,330.5 176.7,318.2 176.7,344 151.2,355.9 151.2,330.5 	"/>
	<polyline id="XMLID_24_" class="st0" points="151.2,367.1 176.7,355.2 176.7,380.6 151.2,392.9 151.2,367.1 	"/>
	<polyline id="XMLID_25_" class="st0" points="121.3,167.7 142.1,158.3 142.1,139.3 121.3,149.2 121.3,167.7 	"/>
	<polyline id="XMLID_26_" class="st0" points="121.3,204.9 142.1,195.5 142.1,176.5 121.3,186.4 121.3,204.9 	"/>
	<polyline id="XMLID_27_" class="st0" points="121.3,240.2 142.1,230.9 142.1,211.6 121.3,221.8 121.3,240.2 	"/>
	<polyline id="XMLID_28_" class="st0" points="121.3,277.1 142.1,267.8 142.1,248.8 121.3,258.7 121.3,277.1 	"/>
	<polyline id="XMLID_29_" class="st0" points="121.3,314.6 142.1,305 142.1,286 121.3,295.9 121.3,314.6 	"/>
	<polyline id="XMLID_30_" class="st0" points="121.3,350.2 142.1,340.6 142.1,321.6 121.3,331.5 121.3,350.2 	"/>
	<polyline id="XMLID_31_" class="st0" points="121.3,386.9 142.1,377.5 142.1,358.5 121.3,368.4 121.3,386.9 	"/>
	<polyline id="XMLID_32_" class="st0" points="93.2,137 108.3,127.9 108.3,143.7 93.2,152.3 93.2,137 	"/>
	<polyline id="XMLID_33_" class="st0" points="93.2,174.2 108.3,165.1 108.3,181.2 93.2,189.5 93.2,174.2 	"/>
	<polyline id="XMLID_34_" class="st0" points="93.2,209.5 108.3,200.4 108.3,216.6 93.2,225.1 93.2,209.5 	"/>
	<polyline id="XMLID_35_" class="st0" points="93.2,246.5 108.3,237.4 108.3,253.5 93.2,262.1 93.2,246.5 	"/>
	<polyline id="XMLID_36_" class="st0" points="93.2,283.9 108.3,274.8 108.3,290.7 93.2,299.2 93.2,283.9 	"/>
	<polyline id="XMLID_37_" class="st0" points="93.2,319.3 108.3,310.2 108.3,326.3 93.2,334.9 93.2,319.3 	"/>
	<polyline id="XMLID_38_" class="st0" points="93.2,356.2 108.3,347.1 108.3,363.2 93.2,371.5 93.2,356.2 	"/>
	<polyline id="XMLID_39_" class="st0" points="67.5,128.4 79.2,122.4 79.2,133.9 67.5,139.1 67.5,128.4 	"/>
	<polyline id="XMLID_40_" class="st0" points="67.5,165.3 79.2,159.6 79.2,171 67.5,176.3 67.5,165.3 	"/>
	<polyline id="XMLID_41_" class="st0" points="67.5,200.7 79.2,195.2 79.2,206.7 67.5,211.6 67.5,200.7 	"/>
	<polyline id="XMLID_42_" class="st0" points="67.5,237.6 79.2,231.9 79.2,243.3 67.5,248.5 67.5,237.6 	"/>
	<polyline id="XMLID_43_" class="st0" points="67.5,275.1 79.2,269.3 79.2,280.5 67.5,285.7 67.5,275.1 	"/>
	<polyline id="XMLID_44_" class="st0" points="67.5,310.7 79.2,305 79.2,316.1 67.5,321.3 67.5,310.7 	"/>
	<polyline id="XMLID_45_" class="st0" points="67.5,347.6 79.2,341.6 79.2,353.1 67.5,358.3 67.5,347.6 	"/>
	<polyline id="XMLID_46_" class="st1" points="69.5,348.4 81.2,342.4 81.2,353.8 69.5,359 69.5,348.4 	"/>
	<polyline id="XMLID_47_" class="st1" points="69.5,129.2 81.2,123.2 81.2,134.6 69.5,139.8 69.5,129.2 	"/>
	<polyline id="XMLID_48_" class="st1" points="69.5,238.4 81.2,232.7 81.2,244.1 69.5,249.3 69.5,238.4 	"/>
	<path id="XMLID_49_" class="st1" d="M259.3,120.8v255.3c54.6-31.7,112.6-28.6,173.2,0.8V123.7C372.4,95.1,315,96.7,259.3,120.8"/>
	<polyline id="XMLID_50_" class="st1" points="95.2,356.9 110.3,347.8 110.3,364 95.2,372.3 95.2,356.9 	"/>
	<polyline id="XMLID_51_" class="st1" points="95.2,137.7 110.3,128.6 110.3,144.5 95.2,153.1 95.2,137.7 	"/>
	<polyline id="XMLID_52_" class="st1" points="95.2,247.2 110.3,238.1 110.3,254.2 95.2,262.8 95.2,247.2 	"/>
	<polyline id="XMLID_53_" class="st1" points="422.9,382.2 418.2,382.2 418.2,382.9 420.3,382.9 420.3,387.9 421.1,387.9 
		421.1,382.9 422.9,382.9 422.9,382.2 	"/>
	<polyline id="XMLID_54_" class="st1" points="425.5,382.2 424.2,382.2 424.2,387.9 425,387.9 425,383.2 426.8,387.9 427.8,387.9 
		429.4,383.2 429.4,387.9 430.4,387.9 430.4,382.2 428.9,382.2 427.3,386.6 425.5,382.2 	"/>
	<polyline id="XMLID_55_" class="st1" points="123.3,277.9 144.1,268.5 144.1,249.6 123.3,259.4 123.3,277.9 	"/>
	<polyline id="XMLID_56_" class="st1" points="123.3,387.6 144.1,378.3 144.1,359.3 123.3,369.2 123.3,387.6 	"/>
	<polyline id="XMLID_57_" class="st1" points="123.3,168.4 144.1,159.1 144.1,140.1 123.3,150 123.3,168.4 	"/>
	<polyline id="XMLID_58_" class="st1" points="153.2,367.9 178.7,355.9 178.7,381.4 153.2,393.6 153.2,367.9 	"/>
	<polyline id="XMLID_59_" class="st1" points="153.2,148.7 178.7,136.7 178.7,162.2 153.2,174.4 153.2,148.7 	"/>
	<polyline id="XMLID_60_" class="st1" points="153.2,258.4 178.7,246.4 178.7,271.9 153.2,284.1 153.2,258.4 	"/>
	<polyline id="XMLID_61_" class="st1" points="185.5,369.2 215.4,354.1 215.4,383.2 185.5,398.3 185.5,369.2 	"/>
	<polyline id="XMLID_62_" class="st1" points="185.5,150 215.4,134.9 215.4,164 185.5,179.1 185.5,150 	"/>
	<polyline id="XMLID_63_" class="st1" points="185.5,259.4 215.4,244.4 215.4,273.5 185.5,288.8 185.5,259.4 	"/>
	<polyline id="XMLID_64_" class="st1" points="221.9,285.4 221.9,317.4 254.1,300.8 254.1,269.6 221.9,285.4 	"/>
	<polyline id="XMLID_65_" class="st1" points="221.9,322.9 221.9,355.1 254.1,338.5 254.1,307.3 221.9,322.9 	"/>
	<polyline id="XMLID_66_" class="st1" points="221.9,359.8 221.9,392 254.1,375.1 254.1,344.2 221.9,359.8 	"/>
	<polyline id="XMLID_67_" class="st1" points="221.9,138.8 221.9,171 254.1,154.1 254.1,123.2 221.9,138.8 	"/>
	<polyline id="XMLID_68_" class="st1" points="221.9,175.7 221.9,207.9 254.1,191 254.1,159.8 221.9,175.7 	"/>
	<polyline id="XMLID_69_" class="st1" points="221.9,212.1 221.9,244.4 254.1,227.7 254.1,196.5 221.9,212.1 	"/>
	<polyline id="XMLID_70_" class="st1" points="221.9,249 221.9,281.3 254.1,264.4 254.1,233.4 221.9,249 	"/>
	<polyline id="XMLID_71_" class="st2" points="69.5,311.4 81.2,305.7 81.2,316.9 69.5,322.1 69.5,311.4 	"/>
	<polyline id="XMLID_72_" class="st2" points="69.5,275.8 81.2,270.1 81.2,281.3 69.5,286.5 69.5,275.8 	"/>
	<path id="XMLID_73_" class="st2" d="M259.1,262c21.3-10.4,40.6-15.1,58-16.4v77c-20.5,3.6-40.3,9.1-58,17.4V262"/>
	<polyline id="XMLID_74_" class="st2" points="95.2,284.7 110.3,275.6 110.3,291.4 95.2,300 95.2,284.7 	"/>
	<polyline id="XMLID_75_" class="st2" points="95.2,320 110.3,310.9 110.3,327 95.2,335.6 95.2,320 	"/>
	<polyline id="XMLID_76_" class="st2" points="123.3,315.3 144.1,305.7 144.1,286.7 123.3,296.6 123.3,315.3 	"/>
	<polyline id="XMLID_77_" class="st2" points="123.3,351 144.1,341.3 144.1,322.4 123.3,332.2 123.3,351 	"/>
	<polyline id="XMLID_78_" class="st2" points="153.2,295.8 178.7,283.6 178.7,309.4 153.2,321.6 153.2,295.8 	"/>
	<polyline id="XMLID_79_" class="st2" points="153.2,331.2 178.7,319 178.7,344.7 153.2,356.7 153.2,331.2 	"/>
	<polyline id="XMLID_80_" class="st2" points="185.5,296.6 215.4,281.5 215.4,310.7 185.5,326 185.5,296.6 	"/>
	<polyline id="XMLID_81_" class="st2" points="185.5,332.2 215.4,317.2 215.4,346.3 185.5,361.6 185.5,332.2 	"/>
	<path id="XMLID_82_" class="st3" d="M339.7,136.2v82.4h22.9c10.1,0,26.8,5.2,34.3,8.1v-81.4C377.9,137.2,358.7,134.4,339.7,136.2"
		/>
	<polyline id="XMLID_83_" class="st4" points="69.5,166.1 81.2,160.4 81.2,171.8 69.5,177 69.5,166.1 	"/>
	<polyline id="XMLID_84_" class="st4" points="69.5,201.4 81.2,196 81.2,207.4 69.5,212.4 69.5,201.4 	"/>
	<path id="XMLID_85_" class="st4" d="M259.1,156.5c22.9-10.1,41.6-15.6,58-16.6v80.6c-19.5,1.6-38.7,7.5-58,16.4V156.5"/>
	<polyline id="XMLID_86_" class="st4" points="95.2,174.9 110.3,165.8 110.3,181.9 95.2,190.3 95.2,174.9 	"/>
	<polyline id="XMLID_87_" class="st4" points="95.2,210.3 110.3,201.2 110.3,217.3 95.2,225.9 95.2,210.3 	"/>
	<polyline id="XMLID_88_" class="st4" points="123.3,205.6 144.1,196.2 144.1,177.3 123.3,187.1 123.3,205.6 	"/>
	<polyline id="XMLID_89_" class="st4" points="123.3,241 144.1,231.6 144.1,212.4 123.3,222.5 123.3,241 	"/>
	<polyline id="XMLID_90_" class="st4" points="153.2,186.1 178.7,173.9 178.7,199.6 153.2,211.9 153.2,186.1 	"/>
	<polyline id="XMLID_91_" class="st4" points="153.2,221.5 178.7,209.5 178.7,235 153.2,247.2 153.2,221.5 	"/>
	<polyline id="XMLID_92_" class="st4" points="185.5,187.1 215.4,172.1 215.4,201.2 185.5,216.3 185.5,187.1 	"/>
	<polyline id="XMLID_93_" class="st4" points="185.5,222.5 215.4,207.4 215.4,236.6 185.5,251.6 185.5,222.5 	"/>
	<path id="XMLID_94_" class="st5" d="M339.7,242.3v79.3c22.1-1,39,2.3,57.2,8.3v-80.1C377.9,242.3,358.7,239.9,339.7,242.3"/>
</g>
</svg>
