<svg version="1.1" id="Ebene_1" xmlns="http://www.w3.org/2000/svg" xmlns:xlink="http://www.w3.org/1999/xlink" x="0px" y="0px"
	 viewBox="0 0 433 96.4" style="enable-background:new 0 0 433 96.4;" xml:space="preserve">
	<style type="text/css">
		.st0{fill-rule:evenodd;clip-rule:evenodd;fill:#ED0007;}
	</style>
	<g id="brand-claim-english">
		<g id="brand-english-2">
			<g id="logotype-22">
				<path id="logotype-b-22" class="st0" d="M185.2,46.7c5.35876-2.07236,8.86691-7.25487,8.8-13c0-11.7-8.3-17.5-19.7-17.5
					h-29.90001V79.8h32.5c10,0,19.8-7,19.8-17.7C196.7,49.39999,185.2,46.8,185.2,46.7z M160,29.4h11.60001
					c3.125-0.1887,5.81129,2.19164,6,5.31665c0.01375,0.22758,0.01375,0.45578,0,0.68335
					c-0.06343,3.27261-2.76784,5.87416-6.04045,5.81073c-0.08658-0.00168-0.17313-0.00526-0.25955-0.01073h-11.40001L160,29.4z
					 M171.7,66.5h-11.59999V54h11.3c5.7,0,8.39999,2.5,8.39999,6.2C179.8,64.8,176.39999,66.5,171.7,66.5z"/>
				<path id="logotype-o-22" class="st0" d="M231.10001,14.60001c-18.39999,0-29.2,14.7-29.2,33.3c0,18.7,10.8,33.3,29.2,33.3
					c18.5,0,29.20001-14.6,29.20001-33.3C260.29999,29.3,249.60001,14.60001,231.10001,14.60001z M231.10001,66.00001
					c-9,0-13.5-8.1-13.5-18.1s4.5-18,13.5-18s13.60001,8.1,13.60001,18C244.7,58,240.10001,66,231.10001,66.00001z"/>
				<path id="logotype-s-22" class="st0" d="M294.20001,41.2L292,40.7c-5.39999-1.1-9.70001-2.5-9.70001-6.4
					c0-4.2,4.10001-5.9,7.70001-5.9c4.9642,0.078,9.67282,2.215,13,5.9l9.89999-9.8c-4.5-5.1-11.79999-10-23.20001-10
					c-13.39999,0-23.60001,7.5-23.60001,20c0,11.4,8.20001,17,18.20001,19.1L286.5,54.1c8.29999,1.7,11.39999,3,11.39999,7
					c0,3.8-3.39999,6.3-8.60001,6.3c-6.20001,0-11.79999-2.7-16.10001-8.2l-10.10001,10c5.60001,6.7,12.70001,11.9,26.39999,11.9
					c11.89999,0,24.60001-6.8,24.60001-20.7C314.29999,45.89999,303.29999,43.10001,294.20001,41.2z"/>
				<path id="logotype-c-22" class="st0" d="M349.70001,66c-7,0-14.29999-5.8-14.29999-18.5c0-11.3,6.79999-17.6,13.89999-17.6
					c5.60001,0,8.89999,2.6,11.5,7.1l12.79999-8.5c-6.39999-9.7-14-13.8-24.5-13.8C329.89999,14.7,319.5,29.6,319.5,47.6
					c0,18.9,11.5,33.7,29.39999,33.7C361.5,81.3,367.5,76.9,374,67.5l-12.89999-8.7C358.5,63,355.70001,66,349.70001,66z"/>
				<polygon id="logotype-h-22" class="st0" points="416.29999,16.20007 416.29999,39.60007 397,39.60007 397,16.20007 
					380.29999,16.20007 380.29999,79.80007 397,79.80007 397,54.70007 416.29999,54.70007 416.29999,79.80007 433,79.80007 
					433,16.20007 			"/>
			</g>
			<g id="symbol-22">
				<path d="M48.2,0C21.57988,0,0,21.57987,0,48.2s21.57988,48.2,48.2,48.2s48.2-21.57988,48.2-48.2
					C96.38577,21.58577,74.81423,0.01423,48.2,0z M48.2,91.9c-24.13484,0-43.7-19.56516-43.7-43.7S24.06516,4.5,48.2,4.5
					s43.7,19.56516,43.7,43.7C91.87536,72.32463,72.32463,91.87536,48.2,91.9z"/>
				<path d="M68.1,18.10001h-3.3v16.5H31.7v-16.5h-3.4C11.67623,29.07021,7.0931,51.43954,18.0633,68.06332
					c2.68523,4.06908,6.16761,7.55147,10.23669,10.23669h3.4v-16.5H64.8v16.5h3.3
					C84.72378,67.32981,89.3069,44.96048,78.3367,28.3367C75.65147,24.26762,72.16908,20.78524,68.1,18.10001z M27.1,71.80001
					c-13.03392-11.58235-14.21065-31.53778-2.6283-44.5717c0.82372-0.92696,1.70134-1.80458,2.6283-2.6283V71.80001z M64.8,57.20001
					H31.7v-18.1h33.1V57.20001z M69.3,71.70001v-10l0,0v-27.1l0,0v-10c13.0063,11.68609,14.07655,31.70323,2.39046,44.70953
					C70.93678,70.14838,70.13882,70.94633,69.3,71.70001z"/>
			</g>
		</g>
	</g>
</svg>